<?xml version="1.0" standalone="no"?>
<!DOCTYPE svg PUBLIC "-//W3C//DTD SVG 20010904//EN"
 "http://www.w3.org/TR/2001/REC-SVG-20010904/DTD/svg10.dtd">
<svg version="1.0" xmlns="http://www.w3.org/2000/svg"
 width="16.000000pt" height="16.000000pt" viewBox="0 0 16.000000 16.000000"
 preserveAspectRatio="xMidYMid meet">
<metadata>
Created by potrace 1.11, written by Peter Selinger 2001-2013
</metadata>
<g transform="translate(0.000000,16.000000) scale(0.001932,-0.001932)"
fill="#000000" stroke="none">
<path d="M2914 8256 c-45 -28 -82 -78 -106 -146 -18 -49 -26 -87 -42 -205 -7
-45 -29 -145 -48 -215 -11 -41 -21 -79 -23 -85 -1 -5 -5 -17 -8 -25 -17 -44
-91 -240 -101 -267 -6 -18 -14 -33 -18 -33 -5 0 -8 -6 -8 -12 0 -14 -96 -207
-145 -293 -15 -27 -36 -63 -45 -80 -36 -62 -135 -222 -167 -267 -18 -26 -33
-50 -33 -52 0 -2 -23 -37 -50 -78 -28 -40 -55 -80 -60 -88 -6 -8 -65 -96 -133
-195 -124 -183 -274 -409 -292 -442 -6 -10 -23 -37 -38 -60 -15 -24 -27 -47
-27 -53 0 -5 -4 -10 -8 -10 -4 0 -21 -26 -37 -57 -16 -32 -32 -60 -35 -63 -14
-10 -169 -337 -204 -428 -62 -162 -105 -327 -130 -492 -14 -89 -15 -439 -3
-510 3 -14 8 -44 11 -67 23 -146 94 -375 162 -520 15 -32 27 -61 26 -65 -1 -5
3 -8 8 -8 6 0 10 -5 10 -10 0 -13 118 -209 136 -228 7 -7 21 -26 31 -42 9 -17
21 -30 25 -30 4 0 8 -4 8 -9 0 -12 57 -77 155 -176 96 -96 141 -135 231 -202
133 -97 207 -140 404 -231 119 -56 383 -127 545 -148 69 -8 396 -14 408 -7 5
3 30 6 55 8 66 4 137 15 207 31 33 8 71 17 85 20 71 14 249 82 355 134 121 59
216 110 225 121 3 3 34 25 68 48 134 90 301 248 413 391 33 41 63 80 68 86 47
59 191 315 191 340 0 8 5 14 12 14 6 0 8 3 5 6 -4 4 0 19 8 33 15 27 71 185
80 224 2 12 9 40 15 62 6 22 12 49 14 60 1 11 6 29 9 40 3 11 9 43 12 70 4 28
9 64 11 80 3 17 7 76 8 132 2 56 7 106 11 112 3 6 3 11 -2 11 -4 0 -9 55 -10
123 -1 112 -4 159 -19 302 -3 28 -7 70 -9 95 -2 25 -4 45 -5 45 -2 0 -9 36
-15 75 -9 62 -13 88 -19 117 -8 36 -13 62 -20 104 -3 19 -10 49 -15 67 -5 17
-8 32 -5 32 3 0 0 8 -5 19 -6 10 -13 31 -16 47 -10 56 -13 70 -40 159 -14 50
-27 95 -28 100 -2 6 -6 16 -10 23 -5 6 -6 12 -3 12 2 0 -5 24 -15 53 -11 28
-22 59 -24 67 -6 23 -58 166 -100 270 -69 174 -256 544 -355 705 -23 39 -52
86 -63 105 -12 19 -24 37 -27 40 -3 3 -26 37 -49 75 -24 39 -48 72 -53 73 -4
2 -8 10 -8 17 0 7 -3 15 -8 17 -4 2 -32 37 -62 78 -96 132 -241 310 -252 310
-6 0 -9 3 -5 6 3 3 -4 16 -16 29 -12 13 -56 60 -97 106 -136 150 -445 451
-512 497 -13 9 -32 25 -43 35 -11 10 -53 35 -93 54 -99 49 -187 56 -248 19z"/>
<path d="M5885 3383 c-58 -15 -90 -79 -110 -223 -11 -76 -44 -187 -90 -300
-29 -70 -115 -242 -125 -250 -4 -3 -17 -25 -31 -50 -13 -25 -27 -49 -31 -55
-8 -11 -225 -334 -248 -369 -8 -13 -28 -43 -44 -67 -16 -24 -42 -63 -57 -87
-16 -24 -29 -45 -29 -47 0 -2 -12 -21 -26 -42 -25 -38 -155 -295 -163 -323 -2
-8 -14 -46 -27 -83 -22 -66 -40 -153 -33 -160 2 -2 -1 -10 -8 -18 -17 -20 -9
-327 10 -409 5 -18 7 -26 36 -110 12 -36 23 -69 25 -75 28 -92 139 -261 243
-370 157 -165 401 -291 637 -329 87 -13 308 -14 371 -1 123 26 216 54 278 86
22 10 45 19 52 19 7 0 15 4 17 8 2 5 29 23 62 41 125 72 262 203 350 336 100
151 139 242 177 418 39 177 19 516 -46 797 -3 14 -8 34 -10 46 -3 12 -19 66
-36 120 -17 54 -34 110 -39 124 -38 125 -174 407 -270 560 -47 77 -166 247
-180 260 -3 3 -32 39 -64 80 -98 125 -393 411 -456 442 -59 30 -103 40 -135
31z"/>
</g>
</svg>
